<?xml version="1.0" encoding="UTF-8"?>
<svg id="Layer_2" data-name="Layer 2" xmlns="http://www.w3.org/2000/svg" width="775.63" height="204.36" viewBox="0 0 775.63 204.36">
  <defs>
    <style>
      .cls-1 {
        fill: #f4f2ed;
      }
    </style>
  </defs>
  <g id="Layer_1-2" data-name="Layer 1">
    <g>
      <g>
        <path class="cls-1" d="m4.48,54.24c0-5.97.94-11.34,2.83-16.1,1.88-4.76,4.69-8.87,8.43-12.32,3.45-3.16,7.3-5.54,11.55-7.12,4.25-1.58,8.91-2.37,14-2.37,4.69,0,9.04.71,13.04,2.13s7.67,3.56,11.01,6.4c4.19,3.63,7.4,8,9.63,13.12,2.22,5.12,3.33,10.75,3.33,16.9,0,5.79-.99,11.11-2.96,15.94-1.97,4.83-4.88,9.03-8.72,12.58-3.31,3.09-7.08,5.47-11.31,7.12-4.23,1.65-8.66,2.48-13.28,2.48-11.27,0-20.34-3.55-27.22-10.67-6.88-7.11-10.32-16.48-10.32-28.1Zm37.01-30.93c-6.26,0-11.28,2.82-15.06,8.45-3.79,5.63-5.68,13.2-5.68,22.69s1.89,17.36,5.68,23.17,8.74,8.72,14.85,8.72,11.17-2.83,14.96-8.5,5.68-13.22,5.68-22.64-1.86-17.49-5.57-23.25c-3.72-5.76-8.67-8.64-14.85-8.64Z"/>
        <path class="cls-1" d="m96.77,88.85v-19.78h8.27l1.76,13.12,1.44,1.65c1.6.5,3.19.87,4.77,1.12,1.58.25,3.19.37,4.83.37,4.27,0,7.68-.94,10.24-2.83,2.56-1.88,3.84-4.39,3.84-7.52,0-2.77-.9-5.23-2.69-7.39-1.8-2.15-4.79-4.27-8.99-6.37-.68-.36-1.71-.85-3.09-1.49-4.98-2.31-8.71-4.51-11.2-6.61-2.45-2.06-4.34-4.39-5.65-6.99-1.32-2.59-1.97-5.24-1.97-7.95,0-6.26,2.39-11.41,7.17-15.46,4.78-4.05,10.98-6.08,18.58-6.08,3.31,0,6.67.31,10.08.93,3.41.62,6.9,1.56,10.45,2.8v17.7h-7.89l-1.81-11.36-1.55-1.55c-1.03-.53-2.2-.92-3.52-1.17-1.32-.25-2.81-.37-4.48-.37-3.88,0-6.99.96-9.33,2.88-2.35,1.92-3.52,4.43-3.52,7.52,0,2.28.67,4.33,2,6.16,1.33,1.83,3.62,3.71,6.85,5.63.78.5,2.96,1.54,6.53,3.12,3.57,1.58,6.59,3.16,9.04,4.72,3.16,2.03,5.6,4.46,7.31,7.31,1.71,2.84,2.56,5.88,2.56,9.12,0,6.68-2.65,12.09-7.95,16.21-5.3,4.12-12.3,6.19-21.01,6.19-3.56,0-7.13-.31-10.72-.93-3.59-.62-7.04-1.52-10.35-2.69Z"/>
        <path class="cls-1" d="m162.28,17.98h62.98v19.3h-7.52l-1.87-11.68-1.6-1.39h-13.12v59.41l1.87,1.71,7.09.59v5.33h-32.69v-5.33l7.15-.59,1.81-1.71V24.21h-13.07l-1.65,1.39-1.87,11.68h-7.52v-19.3Z"/>
        <path class="cls-1" d="m237.72,91.25v-5.33l6.67-.59,1.76-1.71V25.39l-1.76-1.55-6.67-.53v-5.33h55.09v17.12h-7.57l-1.87-9.6-1.17-1.44h-21.86v26.02h14.24l1.49-1.55,1.12-7.84h6.45v25.33h-6.45l-1.12-7.89-1.49-1.49h-14.24v28.37h25.49l1.28-1.76,1.76-11.57h7.52v19.57h-58.66Z"/>
        <path class="cls-1" d="m311.02,91.25v-5.33l6.45-.59,1.97-1.71V25.39l-1.65-1.55-7.2-.53v-5.33h29.49c10.42,0,17.99,1.76,22.72,5.28,4.73,3.52,7.09,9.1,7.09,16.75s-2.51,13.64-7.52,17.89c-5.01,4.25-12.03,6.37-21.06,6.37-.85,0-1.9-.03-3.15-.08-1.25-.05-2.68-.13-4.32-.24v19.68l1.65,1.71,7.79.59v5.33h-32.26Zm22.82-33.54c.07,0,.2.02.37.05,1.63.11,2.83.16,3.57.16,5.65,0,9.91-1.46,12.77-4.37,2.86-2.92,4.29-7.27,4.29-13.07,0-5.23-1.32-9.23-3.95-12-2.63-2.77-6.42-4.16-11.36-4.16h-5.71v33.38Z"/>
        <path class="cls-1" d="m384.64,54.24c0-5.97.94-11.34,2.83-16.1,1.88-4.76,4.69-8.87,8.43-12.32,3.45-3.16,7.3-5.54,11.54-7.12,4.25-1.58,8.91-2.37,14-2.37,4.69,0,9.04.71,13.04,2.13,4,1.42,7.67,3.56,11.01,6.4,4.19,3.63,7.4,8,9.63,13.12,2.22,5.12,3.33,10.75,3.33,16.9,0,5.79-.99,11.11-2.96,15.94-1.97,4.83-4.88,9.03-8.72,12.58-3.31,3.09-7.08,5.47-11.31,7.12s-8.66,2.48-13.28,2.48c-11.27,0-20.34-3.55-27.22-10.67s-10.32-16.48-10.32-28.1Zm37.01-30.93c-6.26,0-11.28,2.82-15.06,8.45-3.79,5.63-5.68,13.2-5.68,22.69s1.89,17.36,5.68,23.17,8.74,8.72,14.85,8.72,11.17-2.83,14.96-8.5,5.68-13.22,5.68-22.64-1.86-17.49-5.57-23.25c-3.71-5.76-8.67-8.64-14.85-8.64Z"/>
        <path class="cls-1" d="m476.93,88.85v-19.78h8.27l1.76,13.12,1.44,1.65c1.6.5,3.19.87,4.77,1.12,1.58.25,3.19.37,4.83.37,4.27,0,7.68-.94,10.24-2.83,2.56-1.88,3.84-4.39,3.84-7.52,0-2.77-.9-5.23-2.69-7.39-1.8-2.15-4.79-4.27-8.99-6.37-.68-.36-1.71-.85-3.09-1.49-4.98-2.31-8.71-4.51-11.2-6.61-2.45-2.06-4.34-4.39-5.65-6.99-1.32-2.59-1.97-5.24-1.97-7.95,0-6.26,2.39-11.41,7.17-15.46s10.98-6.08,18.58-6.08c3.31,0,6.67.31,10.08.93s6.9,1.56,10.45,2.8v17.7h-7.89l-1.81-11.36-1.55-1.55c-1.03-.53-2.21-.92-3.52-1.17-1.32-.25-2.81-.37-4.48-.37-3.88,0-6.99.96-9.33,2.88-2.35,1.92-3.52,4.43-3.52,7.52,0,2.28.67,4.33,2,6.16s3.62,3.71,6.85,5.63c.78.5,2.96,1.54,6.53,3.12,3.57,1.58,6.59,3.16,9.04,4.72,3.16,2.03,5.6,4.46,7.31,7.31,1.71,2.84,2.56,5.88,2.56,9.12,0,6.68-2.65,12.09-7.95,16.21s-12.3,6.19-21.01,6.19c-3.56,0-7.13-.31-10.72-.93-3.59-.62-7.04-1.52-10.35-2.69Z"/>
        <path class="cls-1" d="m542.44,17.98h62.98v19.3h-7.52l-1.87-11.68-1.6-1.39h-13.12v59.41l1.87,1.71,7.09.59v5.33h-32.69v-5.33l7.15-.59,1.81-1.71V24.21h-13.07l-1.65,1.39-1.87,11.68h-7.52v-19.3Z"/>
        <path class="cls-1" d="m617.88,91.25v-5.33l6.67-.59,1.76-1.71V25.39l-1.76-1.55-6.67-.53v-5.33h55.09v17.12h-7.57l-1.87-9.6-1.17-1.44h-21.86v26.02h14.24l1.49-1.55,1.12-7.84h6.45v25.33h-6.45l-1.12-7.89-1.49-1.49h-14.24v28.37h25.49l1.28-1.76,1.76-11.57h7.52v19.57h-58.66Z"/>
        <path class="cls-1" d="m690.86,91.25v-5.23l6.45-.91,1.97-1.97V25.39l-1.55-1.55-6.88-.53v-5.33h25.01v2.93l33.44,51.89V26.03l-1.97-2.08-6.67-.64v-5.33h24.9v5.33l-6.45.64-1.87,2.08v65.22h-12.21l-37.81-58.66v50.55l1.76,1.97,6.77.91v5.23h-24.9Z"/>
      </g>
      <g>
        <path class="cls-1" d="m219.58,165.24c-6.95-1.95-10.41-2.97-17.31-5.13-1.91,6.11-2.86,9.16-4.77,15.27-2.86-.89-4.28-1.35-7.13-2.27,3.61-11.1,7.21-22.19,10.82-33.29,10.03,3.26,15.07,4.78,25.2,7.59-.68,2.47-1.03,3.7-1.71,6.17-7.49-2.08-11.22-3.18-18.66-5.5-.74,2.37-1.11,3.55-1.85,5.92,6.83,2.13,10.26,3.15,17.14,5.08-.69,2.47-1.04,3.7-1.73,6.16Z"/>
        <path class="cls-1" d="m251.68,189.72c-3.52-7.34-5.21-11.02-8.47-18.4-2.07-.49-3.1-.74-5.16-1.26-1.54,6.23-2.32,9.35-3.86,15.58-2.89-.72-4.34-1.08-7.23-1.83,2.94-11.29,5.87-22.58,8.81-33.87,7.51,1.95,11.28,2.87,18.84,4.58,2.82.64,4.94,1.99,6.4,4.07,1.46,2.08,1.9,4.53,1.32,7.33-.56,2.68-1.87,4.67-3.94,5.96-2.08,1.29-4.51,1.72-7.28,1.27,3.49,7.37,5.31,11.04,9.07,18.36-3.4-.69-5.1-1.05-8.49-1.79Zm1.52-28.96c-4.86-1.1-7.29-1.68-12.14-2.88-.59,2.39-.89,3.58-1.48,5.97,4.9,1.21,7.35,1.79,12.26,2.9.81.18,1.54.08,2.17-.31.64-.39,1.06-1.07,1.28-2.05.22-.98.12-1.78-.28-2.42s-1.01-1.04-1.81-1.23Z"/>
        <path class="cls-1" d="m272.33,189.52c-2.77-3.75-3.58-8.4-2.51-13.93,1.07-5.53,3.53-9.54,7.32-12.07,3.79-2.54,8.29-3.35,13.61-2.48,5.31.87,9.33,3.06,12.11,6.67,2.78,3.61,3.84,8.19,3.1,13.77-.74,5.58-2.98,9.74-6.79,12.42-3.81,2.68-8.57,3.59-14.2,2.67-5.63-.92-9.86-3.3-12.63-7.04Zm24.65-18c-1.64-2.3-4.05-3.7-7.25-4.22-3.21-.52-5.95.04-8.25,1.7-2.3,1.66-3.79,4.3-4.45,7.94-.66,3.64-.18,6.64,1.47,9,1.65,2.35,4.15,3.82,7.48,4.36,3.33.54,6.16-.05,8.45-1.77,2.29-1.71,3.69-4.41,4.22-8.07.53-3.66-.04-6.64-1.67-8.94Z"/>
        <path class="cls-1" d="m349.22,181.58c-4.55,8.37-6.9,12.54-11.73,20.82-2.18-.17-3.27-.26-5.45-.45-3.39-8.97-5.02-13.47-8.13-22.48-.89,8.59-1.34,12.89-2.24,21.48-2.95-.31-4.42-.47-7.36-.81,1.34-11.59,2.68-23.18,4.03-34.77,3.04.35,4.57.52,7.62.83,3.65,10.49,5.58,15.72,9.63,26.15,5.72-9.62,8.48-14.46,13.82-24.2,3.06.19,4.58.28,7.64.44-.59,11.65-1.19,23.3-1.78,34.95-2.96-.15-4.43-.23-7.39-.42.54-8.62.81-12.93,1.35-21.56Z"/>
        <path class="cls-1" d="m364.1,203.95c5.34-11.43,10.44-22.97,15.28-34.62,3.12.04,4.68.06,7.8.06,4.67,11.72,9.59,23.34,14.76,34.84-3.17.07-4.76.1-7.93.13-1.91-4.52-2.85-6.79-4.69-11.32-4.97.01-7.46,0-12.43-.09-1.91,4.51-2.88,6.76-4.86,11.25-3.17-.08-4.76-.13-7.93-.25Zm19.12-26.38c-1.49,3.71-2.24,5.56-3.77,9.26,2.96.04,4.44.05,7.4.06-1.47-3.72-2.2-5.59-3.63-9.32Z"/>
        <path class="cls-1" d="m407.81,186.57c-.18-5.63,1.34-10.08,4.5-13.4,3.15-3.31,7.39-5.1,12.78-5.43,3.4-.21,6.46.24,9.2,1.37,2.74,1.13,4.99,2.79,6.77,5.01-2.21,1.82-3.32,2.72-5.57,4.52-2.54-3.31-5.85-4.82-10.01-4.56-3.3.2-5.88,1.35-7.75,3.46-1.87,2.11-2.74,5.03-2.57,8.75.16,3.66,1.35,6.48,3.6,8.42,2.25,1.94,5.07,2.82,8.43,2.61,2.62-.16,4.77-.96,6.46-2.37,1.69-1.41,2.59-3.09,2.72-5.04-.09-1.18-.14-1.76-.23-2.94-6.85.53-10.27.75-17.13,1.09.73-2.6,1.09-3.9,1.8-6.5,8.73-.47,13.09-.78,21.8-1.55.78,8.73,1.17,13.09,1.94,21.81-2.89.26-4.33.38-7.22.6-.09-1.12-.13-1.67-.22-2.79-2.49,2.43-5.68,3.79-9.54,4.03-5.71.36-10.43-1.03-14.07-4.08-3.64-3.06-5.51-7.41-5.69-13Z"/>
        <path class="cls-1" d="m484.26,197.07c-9.28,1.44-18.63,2.66-27.96,3.64-1.25-11.6-2.5-23.2-3.75-34.8,10.55-1.14,15.82-1.82,26.33-3.43.39,2.53.58,3.8.97,6.33-7.8,1.19-11.7,1.72-19.53,2.66.27,2.26.41,3.4.68,5.66,7.2-.86,10.79-1.34,17.97-2.42.38,2.53.57,3.8.95,6.33-7.25,1.08-10.88,1.57-18.15,2.44.48,4.01.72,6.02,1.2,10.03,8.15-.97,12.22-1.53,20.34-2.77.39,2.53.58,3.8.97,6.33Z"/>
        <path class="cls-1" d="m520.84,190.39c-6.23-5.24-9.29-7.89-15.28-13.28-2.08.4-3.12.6-5.21.98,1.16,6.31,1.74,9.47,2.9,15.79-2.92.54-4.38.8-7.31,1.3-1.97-11.5-3.95-23-5.92-34.5,7.62-1.31,11.42-2.02,19-3.58,2.83-.58,5.32-.23,7.5,1.07,2.18,1.3,3.6,3.34,4.22,6.14.59,2.67.22,5.02-1.14,7.06-1.36,2.03-3.4,3.43-6.11,4.16,6.21,5.27,9.38,7.87,15.83,12.99-3.39.77-5.08,1.14-8.48,1.86Zm-10.54-27.02c-4.88,1-7.32,1.47-12.22,2.37.44,2.42.67,3.63,1.11,6.05,4.94-.91,7.41-1.39,12.34-2.4.81-.17,1.43-.56,1.85-1.17.42-.62.53-1.41.32-2.39-.21-.98-.62-1.67-1.25-2.09s-1.35-.54-2.15-.37Z"/>
        <path class="cls-1" d="m537.99,186.49c-2.74-11.34-5.48-22.68-8.23-34.02,2.74-.66,4.1-1,6.84-1.7,2.87,11.31,5.75,22.61,8.62,33.92-2.89.73-4.34,1.09-7.23,1.79Z"/>
        <path class="cls-1" d="m585.26,173.12c-9,2.95-18.1,5.68-27.24,8.18-3.11-11.25-6.22-22.49-9.32-33.74,10.31-2.85,15.44-4.39,25.65-7.7.79,2.43,1.19,3.65,1.98,6.09-7.57,2.46-11.38,3.63-19.01,5.83.63,2.19.95,3.29,1.58,5.48,7.02-2.03,10.52-3.1,17.49-5.34.78,2.44,1.18,3.66,1.96,6.09-7.04,2.27-10.58,3.34-17.67,5.39l2.8,9.7c7.95-2.3,11.91-3.51,19.8-6.08.79,2.43,1.19,3.65,1.98,6.09Z"/>
      </g>
    </g>
  </g>
</svg>