<?xml version="1.0" encoding="UTF-8"?><svg id="Layer_1" xmlns="http://www.w3.org/2000/svg" width="426.15" height="407.23" viewBox="0 0 426.15 407.23"><polygon points="0 0 0 41.86 42.37 41.86 119.35 204.48 98.74 241.7 95.41 248.93 91 257.29 89.02 260.54 87.97 263.17 87.44 264.75 86.39 268.96 86.13 273.83 86 281.99 86.26 283.83 86.65 285.67 87.05 288.17 87.97 290.41 88.63 292.38 89.81 295.01 91.78 298.56 94.81 302.77 98.1 306.46 102.57 310.4 106.91 313.43 111.12 315.53 115.33 317.64 118.75 318.56 124.41 318.56 189.27 318.56 272.68 318.56 356.35 318.56 383.45 318.56 383.45 276.99 360.17 276.99 150.74 276.99 136.6 276.99 135.32 276.94 134.31 276.4 133.52 275.66 132.77 274.81 132.03 273.75 132.03 269.92 132.35 269.13 133.09 267.96 133.73 266.79 134.21 265.94 134.58 265.41 137.18 260.63 151.38 234.03 314.1 234.03 317.29 233.84 321.63 233.16 324.11 232.04 327.32 230.62 331.52 228.45 334.14 226.65 338.77 222.71 342.79 219.31 345.26 216.22 348.04 211.58 424.19 73.4 424.83 71.95 425.27 70.37 425.84 67.6 426.15 64.26 426.15 62.18 426.15 60.54 426.15 58.02 425.33 55.44 424.39 53.61 422.69 51.41 421.3 49.58 419.03 47.25 415.57 44.85 414.12 44.03 411.79 42.59 410.27 42.02 90.87 42.02 69.68 0 0 0"/><circle cx="144.56" cy="366.87" r="40.36"/><circle cx="329.49" cy="366.87" r="40.36"/></svg>