<?xml version="1.0" encoding="UTF-8"?>
<svg id="Layer_2" data-name="Layer 2" xmlns="http://www.w3.org/2000/svg" viewBox="0 0 416.28 266.13">
  <defs>
    <style>
      .cls-1 {
        fill: #bc9942;
      }

      .cls-2 {
        fill: #d6b363;
      }

      .cls-3 {
        font-size: 19.2px;
      }

      .cls-3, .cls-4 {
        font-family: Charter-Bold, Charter;
        font-weight: 700;
      }

      .cls-5 {
        fill: #efe9cb;
      }

      .cls-5, .cls-6 {
        stroke: #666;
      }

      .cls-5, .cls-6, .cls-7 {
        stroke-miterlimit: 10;
        stroke-width: .25px;
      }

      .cls-6 {
        fill: #63171d;
      }

      .cls-7 {
        fill: #e0c67c;
        stroke: #000;
      }

      .cls-8 {
        font-family: Charter-Roman, Charter;
        font-size: 14px;
      }

      .cls-4 {
        font-size: 16px;
      }
    </style>
  </defs>
  <g id="Layer_1-2" data-name="Layer 1">
    <g>
      <g>
        <path class="cls-7" d="m285.75,176.01c1.57-13.41,2.97-26.88,4.54-40.3,1.41-12.03,2.82-24.07,5.03-35.98.17-.89-.5-1.77-1.22-2.33-3.44-2.69-7.23-4.93-11.25-6.63-1.21-.51-2.44-.98-3.67-1.44-4.25-1.6-8.66-2.5-13.08-3.55-1.45-.35-2.97-.23-4.46-.11-2.58.2-5.19.41-7.68,1.12-2.48.7-4.81,2.17-7.37,1.9-.36,3.51-1.47,6.89-2.52,10.26-2.4,7.74-4.45,15.65-5.05,23.73-.24,3.23-.26,6.49-.8,9.68-.3,1.73-.75,3.44-1.12,5.16-.74,3.37-1.21,6.8-1.55,10.23-.42,4.16-.67,8.33-.75,12.5,4.07,2.01,8.47,3.2,12.82,4.49,9.27,2.75,18.55,5.51,27.82,8.26,2.78.83,5.56,1.65,8.35,2.48,1.37.41,2.03.64,3.37.16s2.72-.97,4.07-1.45c1.86-.66,3.72-1.32,5.58-1.98.41-.15.82-.29,1.22-.44,3.97-1.41,7.93-2.82,11.9-4.23,2.77-.99,5.5-2.21,8.14-3.52.65-.33,1.3-.66,1.99-.92.65-.25,1.33-.43,2-.62,2.6-.74,5.14-1.72,7.57-2.91.35-.17.75-.42.76-.81.28-8.84,2.16-17.72.84-26.46-.6-3.93-2.06-7.25-3.3-11.45-.14-.47-.29-.88-.52-1.31-.25-.46-.72-1.31-.97-1.76-3.06-5.56-7.21-10.13-11.42-13.92-1.9-1.71-3.09-2.02-5.23-3.42-2.01-1.32-4.35-2.38-6.51-3.43-4.99-2.43-10.14-4.53-15.41-6.28-7.16-2.38-14.55-4.53-22.08-5"/>
        <path class="cls-7" d="m295.32,99.77c3.7-.42,7.44.39,11.01,1.46,1.68.5,3.37,1,4.92,1.82,6.91,3.63,10.4,8.97,13.78,15.34,1.14,2.15,1.89,4.48,2.56,6.81.24.86.46,1.72.67,2.58,1.16,4.64,2.32,9.35,2.2,14.14-.14,5.83-.22,11.62-1.07,17.38-.01.08-.04.13-.04.22"/>
        <path class="cls-1" d="m260.71,103.19c.15,0,.3,0,.44.06.39.17.44.7.42,1.13-.01.34-.04.72-.29.96-.14.14-.33.21-.52.25-.39.09-.82.06-1.14-.17-.45-.32-.93-1.32-.63-1.86s1.19-.37,1.72-.37Z"/>
        <path class="cls-1" d="m267.9,114.48c.26-.63.95-1.05,1.63-1,.08,0,.17.02.22.09.04.05.05.11.05.18.03.38-.02.78-.23,1.1s-.6.53-.97.45-.64-.52-.48-.87"/>
        <path class="cls-1" d="m267.6,146.55c-.33-.64-.65-1.42-.28-2.04.32-.53,1.01-.68,1.62-.78.44-.07.97-.12,1.28.21.24.25.25.64.25.99,0,.74-.07,1.6-.68,2.03-.36.25-.82.28-1.25.3-.3.01-.62.02-.86-.15s-.3-.61-.03-.75"/>
        <path class="cls-1" d="m288.83,146.96c.07-.14-.03-.31-.17-.37s-.3-.02-.45.02c-.84.27-1.49.98-1.84,1.79s-.46,1.7-.48,2.58c0,.15,0,.32.07.45.07.11.18.19.29.26.34.22.7.46,1.11.48s.86-.26.88-.66"/>
        <path class="cls-7" d="m311.95,166.61c.78-1.15,1.4-2.4,1.84-3.71.66-1.97.92-4.05,1.18-6.11.19-1.51.37-3.02.56-4.53.16-1.3.32-2.6.39-3.9.19-3.75-.42-7.54-1.78-11.04-.44-1.13-.95-2.23-1.6-3.25-1.09-1.7-2.53-3.14-3.98-4.54-.54-.52-1.08-1.03-1.69-1.46-1.1-.76-2.38-1.21-3.68-1.53-3.91-.97-8.08-.83-11.93.38"/>
        <path class="cls-2" d="m239.84,117.65c.75-2.16,1.5-4.32,2.26-6.49.27-.77.54-1.54.65-2.35.08-.59.08-1.19.23-1.76.17-.66.52-1.26.79-1.89.94-2.23.73-4.78,1.41-7.1.43-1.45,1.21-2.8,1.37-4.3.07-.62.03-1.27.2-1.87s.65-1.19,1.27-1.23c.33-.02.65.11.97.21,1.8.61,3.78.53,5.63.09s3.6-1.22,5.33-2c2.29-1.02,4.77-1.62,7.15-.83.81.27,1.57.66,2.35,1,1.34.58,2.74,1.01,4.18,1.28.75.14,1.48.32,2.19.6,1.46.58,2.92,1.16,4.39,1.74.83.33,1.66.66,2.47,1.04,1.68.79,3.24,1.8,4.74,2.89,1.26.92,2.49,1.92,3.4,3.18.4.56.74,1.17,1.07,1.78,1.23,2.3,2.4,4.83,2.05,7.42.12-2.81.39-5.63.97-8.38.18-.84.36-1.76-.02-2.52-.33-.64-.99-1.03-1.62-1.39-2.62-1.48-4.88-3.48-7.59-4.78-2.89-1.39-5.95-2.37-9.01-3.35-1.66-.53-3.33-1.07-4.99-1.6-.98-.31-1.96-.63-2.96-.87-6.63-1.62-13.64-.02-19.99,2.48-.71.08-1.43.16-2.14.24-.03,1.35-.38,2.7-.73,4.01-2.22,8.22-4.81,16.3-6,24.74Z"/>
        <path class="cls-6" d="m291.43,126.97c.98-9.1,2.27-18.17,3.88-27.18,2.16-.38,4.38-.23,6.47.42.81.26,1.61.59,2.45.73,1.08.18,2.2.03,3.25.32.59.17,1.13.46,1.67.76,2.64,1.47,5.25,3.03,7.54,5.02,4.21,3.66,7.11,8.61,9.23,13.76,3.38,8.19,4.96,17.12,4.61,25.97-.17,4.25-.5,8.5-1.2,12.7-2.23,1.42-5,2.12-7.52,2.92-3.4,1.08-6.59,2.69-9.77,4.31,2.27-4.79,2.91-10.37,3.48-15.64.11-.99.21-1.98.25-2.97.04-1.12,0-2.25-.08-3.37-.15-2.08-.44-4.16-1.16-6.11-.84-2.28-2.24-4.3-3.62-6.3-.56-.81-1.46-1.64-2.08-2.39-.35-.43-.71-.86-1.13-1.23-.53-.45-1.15-.79-1.79-1.08-4.51-2.1-9.78-2.22-14.49-.63Z"/>
        <path class="cls-5" d="m291.2,126.99c3.92-.92,8.08-1.4,11.95-.28,3.84,1.12,7.13,3.8,9.31,7.15s3.26,7.34,3.45,11.33c.14,3.02-.21,6.04-.58,9.05-.53,4.28-1.12,8.68-3.27,12.42-8.59,3.42-17.4,6.55-26.26,9.19.69-6.09,1.16-12.13,1.84-18.22.18-1.62.36-3.25.55-4.87.95-8.49,2.24-17.26,3.02-25.76Z"/>
      </g>
      <text class="cls-3" transform="translate(259.66 42.61) rotate(-10.23)"><tspan x="0" y="0">O</tspan></text>
      <text class="cls-3" transform="translate(274.92 40.06) rotate(-1.8)"><tspan x="0" y="0">S</tspan></text>
      <text class="cls-3" transform="translate(286.94 39.73) rotate(5.84)"><tspan x="0" y="0">T</tspan></text>
      <text class="cls-3" transform="translate(299.53 41.1) rotate(13.62)"><tspan x="0" y="0">E</tspan></text>
      <text class="cls-3" transform="translate(311.72 44.14) rotate(21.27)"><tspan x="0" y="0">P</tspan></text>
      <text class="cls-3" transform="translate(323.22 48.58) rotate(29.76)"><tspan x="0" y="0">O</tspan></text>
      <text class="cls-3" transform="translate(336.58 56.46) rotate(38.16)"><tspan x="0" y="0">S</tspan></text>
      <text class="cls-3" transform="translate(345.98 63.91) rotate(45.72)"><tspan x="0" y="0">T</tspan></text>
      <text class="cls-3" transform="translate(354.79 73.05) rotate(53.51)"><tspan x="0" y="0">E</tspan></text>
      <text class="cls-3" transform="translate(362.24 83.1) rotate(62.02)"><tspan x="0" y="0">N</tspan></text>
      <text class="cls-3" transform="translate(369.04 96.56) rotate(68.74)"><tspan x="0" y="0"> </tspan></text>
      <text class="cls-3" transform="translate(371.49 102.99) rotate(72.94)"><tspan x="0" y="0"> </tspan></text>
      <text class="cls-3" transform="translate(373.65 109.39) rotate(79.69)"><tspan x="0" y="0">O</tspan></text>
      <text class="cls-3" transform="translate(376.22 124.67) rotate(88.13)"><tspan x="0" y="0">S</tspan></text>
      <text class="cls-3" transform="translate(376.56 136.67) rotate(95.76)"><tspan x="0" y="0">T</tspan></text>
      <text class="cls-3" transform="translate(375.21 149.27) rotate(103.55)"><tspan x="0" y="0">E</tspan></text>
      <text class="cls-3" transform="translate(372.2 161.44) rotate(111.19)"><tspan x="0" y="0">P</tspan></text>
      <text class="cls-3" transform="translate(367.76 172.98) rotate(119.7)"><tspan x="0" y="0">O</tspan></text>
      <text class="cls-3" transform="translate(359.92 186.33) rotate(128.08)"><tspan x="0" y="0">S</tspan></text>
      <text class="cls-3" transform="translate(352.46 195.76) rotate(135.65)"><tspan x="0" y="0">T</tspan></text>
      <text class="cls-3" transform="translate(343.35 204.55) rotate(143.42)"><tspan x="0" y="0">E</tspan></text>
      <text class="cls-3" transform="translate(333.31 212.02) rotate(151.93)"><tspan x="0" y="0">N</tspan></text>
      <text class="cls-3" transform="translate(319.83 218.85) rotate(158.67)"><tspan x="0" y="0"> </tspan></text>
      <text class="cls-3" transform="translate(313.43 221.3) rotate(162.86)"><tspan x="0" y="0"> </tspan></text>
      <text class="cls-3" transform="translate(307.03 223.48) rotate(169.61)"><tspan x="0" y="0">O</tspan></text>
      <text class="cls-3" transform="translate(291.75 226.07) rotate(178.05)"><tspan x="0" y="0">S</tspan></text>
      <text class="cls-3" transform="translate(279.75 226.43) rotate(-174.31)"><tspan x="0" y="0">T</tspan></text>
      <text class="cls-3" transform="translate(267.13 225.09) rotate(-166.52)"><tspan x="0" y="0">E</tspan></text>
      <text class="cls-3" transform="translate(254.95 222.09) rotate(-158.88)"><tspan x="0" y="0">P</tspan></text>
      <text class="cls-3" transform="translate(243.44 217.68) rotate(-150.38)"><tspan x="0" y="0">O</tspan></text>
      <text class="cls-3" transform="translate(230.05 209.84) rotate(-141.99)"><tspan x="0" y="0">S</tspan></text>
      <text class="cls-3" transform="translate(220.64 202.41) rotate(-134.43)"><tspan x="0" y="0">T</tspan></text>
      <text class="cls-3" transform="translate(211.81 193.29) rotate(-126.65)"><tspan x="0" y="0">E</tspan></text>
      <text class="cls-3" transform="translate(204.33 183.26) rotate(-118.14)"><tspan x="0" y="0">N</tspan></text>
      <text class="cls-3" transform="translate(197.49 169.81) rotate(-111.41)"><tspan x="0" y="0"> </tspan></text>
      <text class="cls-3" transform="translate(195.03 163.4) rotate(-107.21)"><tspan x="0" y="0"> </tspan></text>
      <text class="cls-3" transform="translate(192.84 157) rotate(-100.45)"><tspan x="0" y="0">O</tspan></text>
      <text class="cls-3" transform="translate(190.23 141.74) rotate(-92.03)"><tspan x="0" y="0">S</tspan></text>
      <text class="cls-3" transform="translate(189.86 129.71) rotate(-84.38)"><tspan x="0" y="0">T</tspan></text>
      <text class="cls-3" transform="translate(191.18 117.13) rotate(-76.61)"><tspan x="0" y="0">E</tspan></text>
      <text class="cls-3" transform="translate(194.16 104.95) rotate(-68.96)"><tspan x="0" y="0">P</tspan></text>
      <text class="cls-3" transform="translate(198.57 93.39) rotate(-60.45)"><tspan x="0" y="0">O</tspan></text>
      <text class="cls-3" transform="translate(206.38 80.03) rotate(-52.07)"><tspan x="0" y="0">S</tspan></text>
      <text class="cls-3" transform="translate(213.81 70.57) rotate(-44.5)"><tspan x="0" y="0">T</tspan></text>
      <text class="cls-3" transform="translate(222.89 61.76) rotate(-36.73)"><tspan x="0" y="0">E</tspan></text>
      <text class="cls-3" transform="translate(232.91 54.27) rotate(-28.22)"><tspan x="0" y="0">N</tspan></text>
      <text class="cls-4" transform="translate(246.39 47.4) rotate(-21.76)"><tspan x="0" y="0"> </tspan></text>
      <text class="cls-4" transform="translate(251.72 45.31) rotate(-18.25)"><tspan x="0" y="0"> </tspan></text>
      <text class="cls-4" transform="translate(257.18 43.57) rotate(-15.39)"><tspan x="0" y="0"> </tspan></text>
      <text class="cls-4" transform="translate(262.73 42.12) rotate(-11.32)"><tspan x="0" y="0"> </tspan></text>
      <text class="cls-8" transform="translate(268.34 41.03) rotate(-8.06)"><tspan x="0" y="0"> </tspan></text>
    </g>
    <text/>
  </g>
</svg>