<?xml version="1.0" encoding="UTF-8"?>
<svg id="Layer_2" data-name="Layer 2" xmlns="http://www.w3.org/2000/svg" viewBox="0 0 3788.81 7563.21">
  <defs>
    <style>
      .cls-1 {
        fill: #f4f2ed;
      }

      .cls-2 {
        fill: #9fb4c7;
      }
    </style>
  </defs>
  <g id="Layer_1-2" data-name="Layer 1">
    <g>
      <rect class="cls-2" width="3782.57" height="7535.39"/>
      <g>
        <rect class="cls-2" y="0" width="1891.27" height="3779.28"/>
        <g>
          <rect class="cls-1" x="813.02" y="3514.12" width="265.52" height="265.16"/>
          <rect class="cls-1" x="542.11" y="3514.12" width="265.52" height="265.16"/>
          <rect class="cls-1" x=".28" y="3514.12" width="265.52" height="265.16"/>
          <rect class="cls-1" x="271.19" y="3514.12" width="265.52" height="265.16"/>
          <rect class="cls-1" x="1083.71" y="3514.12" width="265.52" height="265.16"/>
          <rect class="cls-1" x="1354.62" y="3514.12" width="265.52" height="265.16"/>
          <rect class="cls-1" x="1625.47" y="1892.77" width="265.52" height="265.16"/>
          <rect class="cls-1" x="1625.47" y="2163.02" width="265.52" height="265.16"/>
          <rect class="cls-1" x="1625.47" y="2433.27" width="265.52" height="265.16"/>
          <rect class="cls-1" x="1625.47" y="2703.52" width="265.52" height="265.16"/>
          <rect class="cls-1" x="1625.47" y="2974.17" width="265.52" height="265.16"/>
          <rect class="cls-1" x="1625.47" y="3244.42" width="265.52" height="265.16"/>
          <rect class="cls-1" x="813.02" y="2974.17" width="265.52" height="265.16"/>
          <rect class="cls-1" x="542.11" y="2974.17" width="265.52" height="265.16"/>
          <rect class="cls-1" x=".28" y="2974.17" width="265.52" height="265.16"/>
          <rect class="cls-1" x="271.19" y="2974.17" width="265.52" height="265.16"/>
          <rect class="cls-1" x="813.02" y="3244.42" width="265.52" height="265.16"/>
          <rect class="cls-1" x="542.11" y="3244.42" width="265.52" height="265.16"/>
          <rect class="cls-1" x=".28" y="3244.42" width="265.52" height="265.16"/>
          <rect class="cls-1" x="271.19" y="3244.42" width="265.52" height="265.16"/>
          <rect class="cls-1" x="1083.71" y="2974.17" width="265.52" height="265.16"/>
          <rect class="cls-1" x="1354.62" y="2974.17" width="265.52" height="265.16"/>
          <rect class="cls-1" x="1083.71" y="3244.42" width="265.52" height="265.16"/>
          <rect class="cls-1" x="1354.62" y="3244.42" width="265.52" height="265.16"/>
          <rect class="cls-1" x="813.02" y="1892.77" width="265.52" height="265.16"/>
          <rect class="cls-1" x="542.11" y="1892.77" width="265.52" height="265.16"/>
          <rect class="cls-1" x=".28" y="1892.77" width="265.52" height="265.16"/>
          <rect class="cls-1" x="271.19" y="1892.77" width="265.52" height="265.16"/>
          <rect class="cls-1" x="813.02" y="2163.02" width="265.52" height="265.16"/>
          <rect class="cls-1" x="542.11" y="2163.02" width="265.52" height="265.16"/>
          <rect class="cls-1" x=".28" y="2163.02" width="265.52" height="265.16"/>
          <rect class="cls-1" x="271.19" y="2163.02" width="265.52" height="265.16"/>
          <rect class="cls-1" x="813.02" y="2433.27" width="265.52" height="265.16"/>
          <rect class="cls-1" x="542.11" y="2433.27" width="265.52" height="265.16"/>
          <rect class="cls-1" x=".28" y="2433.27" width="265.52" height="265.16"/>
          <rect class="cls-1" x="271.19" y="2433.27" width="265.52" height="265.16"/>
          <rect class="cls-1" x="813.02" y="2703.52" width="265.52" height="265.16"/>
          <rect class="cls-1" x="542.11" y="2703.52" width="265.52" height="265.16"/>
          <rect class="cls-1" x=".28" y="2703.52" width="265.52" height="265.16"/>
          <rect class="cls-1" x="271.19" y="2703.52" width="265.52" height="265.16"/>
          <rect class="cls-1" x="1083.71" y="1892.77" width="265.52" height="265.16"/>
          <rect class="cls-1" x="1354.62" y="1892.77" width="265.52" height="265.16"/>
          <rect class="cls-1" x="1083.71" y="2163.02" width="265.52" height="265.16"/>
          <rect class="cls-1" x="1354.62" y="2163.02" width="265.52" height="265.16"/>
          <rect class="cls-1" x="1083.71" y="2433.27" width="265.52" height="265.16"/>
          <rect class="cls-1" x="1354.62" y="2433.27" width="265.52" height="265.16"/>
          <rect class="cls-1" x="1083.71" y="2703.52" width="265.52" height="265.16"/>
          <rect class="cls-1" x="1354.62" y="2703.52" width="265.52" height="265.16"/>
          <rect class="cls-1" x="1625.47" y="3514.12" width="265.52" height="265.16"/>
          <rect class="cls-1" x="813.29" y="1621.35" width="265.52" height="265.16"/>
          <rect class="cls-1" x="542.37" y="1621.35" width="265.52" height="265.16"/>
          <rect class="cls-1" x=".56" y="1621.35" width="265.52" height="265.16"/>
          <rect class="cls-1" x="271.47" y="1621.35" width="265.52" height="265.16"/>
          <rect class="cls-1" x="1083.98" y="1621.35" width="265.52" height="265.16"/>
          <rect class="cls-1" x="1354.91" y="1621.35" width="265.52" height="265.16"/>
          <rect class="cls-1" x="1625.74" width="265.52" height="265.16"/>
          <rect class="cls-1" x="1625.74" y="270.25" width="265.52" height="265.16"/>
          <rect class="cls-1" x="1625.74" y="540.5" width="265.52" height="265.16"/>
          <rect class="cls-1" x="1625.74" y="810.75" width="265.52" height="265.16"/>
          <rect class="cls-1" x="1625.74" y="1081.4" width="265.52" height="265.16"/>
          <rect class="cls-1" x="1625.74" y="1351.65" width="265.52" height="265.16"/>
          <rect class="cls-1" x="813.29" y="1081.4" width="265.52" height="265.16"/>
          <rect class="cls-1" x="542.37" y="1081.4" width="265.52" height="265.16"/>
          <rect class="cls-1" x=".56" y="1081.4" width="265.52" height="265.16"/>
          <rect class="cls-1" x="271.47" y="1081.4" width="265.52" height="265.16"/>
          <rect class="cls-1" x="813.29" y="1351.65" width="265.52" height="265.16"/>
          <rect class="cls-1" x="542.37" y="1351.65" width="265.52" height="265.16"/>
          <rect class="cls-1" x=".56" y="1351.65" width="265.52" height="265.16"/>
          <rect class="cls-1" x="271.47" y="1351.65" width="265.52" height="265.16"/>
          <rect class="cls-1" x="1083.98" y="1081.4" width="265.52" height="265.16"/>
          <rect class="cls-1" x="1354.91" y="1081.4" width="265.52" height="265.16"/>
          <rect class="cls-1" x="1083.98" y="1351.65" width="265.52" height="265.16"/>
          <rect class="cls-1" x="1354.91" y="1351.65" width="265.52" height="265.16"/>
          <rect class="cls-1" x="813.29" width="265.52" height="265.16"/>
          <rect class="cls-1" x="542.37" width="265.52" height="265.16"/>
          <rect class="cls-1" x=".56" y="0" width="265.52" height="265.16"/>
          <rect class="cls-1" x="271.47" width="265.52" height="265.16"/>
          <rect class="cls-1" x="813.29" y="270.25" width="265.52" height="265.16"/>
          <rect class="cls-1" x="542.37" y="270.25" width="265.52" height="265.16"/>
          <rect class="cls-1" x=".56" y="270.25" width="265.52" height="265.16"/>
          <rect class="cls-1" x="271.47" y="270.25" width="265.52" height="265.16"/>
          <rect class="cls-1" x="813.29" y="540.5" width="265.52" height="265.16"/>
          <rect class="cls-1" x="542.37" y="540.5" width="265.52" height="265.16"/>
          <rect class="cls-1" x=".56" y="540.5" width="265.52" height="265.16"/>
          <rect class="cls-1" x="271.47" y="540.5" width="265.52" height="265.16"/>
          <rect class="cls-1" x="813.29" y="810.75" width="265.52" height="265.16"/>
          <rect class="cls-1" x="542.37" y="810.75" width="265.52" height="265.16"/>
          <rect class="cls-1" x=".56" y="810.75" width="265.52" height="265.16"/>
          <rect class="cls-1" x="271.47" y="810.75" width="265.52" height="265.16"/>
          <rect class="cls-1" x="1083.98" width="265.52" height="265.16"/>
          <rect class="cls-1" x="1354.91" width="265.52" height="265.16"/>
          <rect class="cls-1" x="1083.98" y="270.25" width="265.52" height="265.16"/>
          <rect class="cls-1" x="1354.91" y="270.25" width="265.52" height="265.16"/>
          <rect class="cls-1" x="1083.98" y="540.5" width="265.52" height="265.16"/>
          <rect class="cls-1" x="1354.91" y="540.5" width="265.52" height="265.16"/>
          <rect class="cls-1" x="1083.98" y="810.75" width="265.52" height="265.16"/>
          <rect class="cls-1" x="1354.91" y="810.75" width="265.52" height="265.16"/>
          <rect class="cls-1" x="1625.74" y="1621.35" width="265.52" height="265.16"/>
        </g>
      </g>
      <g>
        <rect class="cls-2" x="1897.55" y="0" width="1891.27" height="3779.28"/>
        <g>
          <rect class="cls-1" x="2710.28" y="3514.12" width="265.52" height="265.16"/>
          <rect class="cls-1" x="2981.19" y="3514.12" width="265.52" height="265.16"/>
          <rect class="cls-1" x="3523.02" y="3514.12" width="265.52" height="265.16"/>
          <rect class="cls-1" x="3252.11" y="3514.12" width="265.52" height="265.16"/>
          <rect class="cls-1" x="2439.58" y="3514.12" width="265.52" height="265.16"/>
          <rect class="cls-1" x="2168.67" y="3514.12" width="265.52" height="265.16"/>
          <rect class="cls-1" x="1897.82" y="1892.77" width="265.52" height="265.16"/>
          <rect class="cls-1" x="1897.82" y="2163.02" width="265.52" height="265.16"/>
          <rect class="cls-1" x="1897.82" y="2433.27" width="265.52" height="265.16"/>
          <rect class="cls-1" x="1897.82" y="2703.52" width="265.52" height="265.16"/>
          <rect class="cls-1" x="1897.82" y="2974.17" width="265.52" height="265.16"/>
          <rect class="cls-1" x="1897.82" y="3244.42" width="265.52" height="265.16"/>
          <rect class="cls-1" x="2710.28" y="2974.17" width="265.52" height="265.16"/>
          <rect class="cls-1" x="2981.19" y="2974.17" width="265.52" height="265.16"/>
          <rect class="cls-1" x="3523.02" y="2974.17" width="265.52" height="265.16"/>
          <rect class="cls-1" x="3252.11" y="2974.17" width="265.52" height="265.16"/>
          <rect class="cls-1" x="2710.28" y="3244.42" width="265.52" height="265.16"/>
          <rect class="cls-1" x="2981.19" y="3244.42" width="265.52" height="265.16"/>
          <rect class="cls-1" x="3523.02" y="3244.42" width="265.52" height="265.16"/>
          <rect class="cls-1" x="3252.11" y="3244.42" width="265.52" height="265.16"/>
          <rect class="cls-1" x="2439.58" y="2974.17" width="265.52" height="265.16"/>
          <rect class="cls-1" x="2168.67" y="2974.17" width="265.52" height="265.16"/>
          <rect class="cls-1" x="2439.58" y="3244.42" width="265.52" height="265.16"/>
          <rect class="cls-1" x="2168.67" y="3244.42" width="265.52" height="265.16"/>
          <rect class="cls-1" x="2710.28" y="1892.77" width="265.52" height="265.16"/>
          <rect class="cls-1" x="2981.19" y="1892.77" width="265.52" height="265.16"/>
          <rect class="cls-1" x="3523.02" y="1892.77" width="265.52" height="265.16"/>
          <rect class="cls-1" x="3252.11" y="1892.77" width="265.52" height="265.16"/>
          <rect class="cls-1" x="2710.28" y="2163.02" width="265.52" height="265.16"/>
          <rect class="cls-1" x="2981.19" y="2163.02" width="265.52" height="265.16"/>
          <rect class="cls-1" x="3523.02" y="2163.02" width="265.52" height="265.16"/>
          <rect class="cls-1" x="3252.11" y="2163.02" width="265.52" height="265.16"/>
          <rect class="cls-1" x="2710.28" y="2433.27" width="265.52" height="265.16"/>
          <rect class="cls-1" x="2981.19" y="2433.27" width="265.52" height="265.16"/>
          <rect class="cls-1" x="3523.02" y="2433.27" width="265.52" height="265.16"/>
          <rect class="cls-1" x="3252.11" y="2433.27" width="265.52" height="265.16"/>
          <rect class="cls-1" x="2710.28" y="2703.52" width="265.52" height="265.16"/>
          <rect class="cls-1" x="2981.19" y="2703.52" width="265.52" height="265.16"/>
          <rect class="cls-1" x="3523.02" y="2703.52" width="265.52" height="265.16"/>
          <rect class="cls-1" x="3252.11" y="2703.52" width="265.52" height="265.16"/>
          <rect class="cls-1" x="2439.58" y="1892.77" width="265.52" height="265.16"/>
          <rect class="cls-1" x="2168.67" y="1892.77" width="265.52" height="265.16"/>
          <rect class="cls-1" x="2439.58" y="2163.02" width="265.52" height="265.16"/>
          <rect class="cls-1" x="2168.67" y="2163.02" width="265.52" height="265.16"/>
          <rect class="cls-1" x="2439.58" y="2433.27" width="265.52" height="265.16"/>
          <rect class="cls-1" x="2168.67" y="2433.27" width="265.52" height="265.16"/>
          <rect class="cls-1" x="2439.58" y="2703.52" width="265.52" height="265.16"/>
          <rect class="cls-1" x="2168.67" y="2703.52" width="265.52" height="265.16"/>
          <rect class="cls-1" x="1897.82" y="3514.12" width="265.52" height="265.16"/>
          <rect class="cls-1" x="2710.01" y="1621.35" width="265.52" height="265.16"/>
          <rect class="cls-1" x="2980.92" y="1621.35" width="265.52" height="265.16"/>
          <rect class="cls-1" x="3522.74" y="1621.35" width="265.52" height="265.16"/>
          <rect class="cls-1" x="3251.83" y="1621.35" width="265.52" height="265.16"/>
          <rect class="cls-1" x="2439.31" y="1621.35" width="265.52" height="265.16"/>
          <rect class="cls-1" x="2168.39" y="1621.35" width="265.52" height="265.16"/>
          <rect class="cls-1" x="1897.55" y="0" width="265.52" height="265.16"/>
          <rect class="cls-1" x="1897.55" y="270.25" width="265.52" height="265.16"/>
          <rect class="cls-1" x="1897.55" y="540.5" width="265.52" height="265.16"/>
          <rect class="cls-1" x="1897.55" y="810.75" width="265.52" height="265.16"/>
          <rect class="cls-1" x="1897.55" y="1081.4" width="265.52" height="265.16"/>
          <rect class="cls-1" x="1897.55" y="1351.65" width="265.52" height="265.16"/>
          <rect class="cls-1" x="2710.01" y="1081.4" width="265.52" height="265.16"/>
          <rect class="cls-1" x="2980.92" y="1081.4" width="265.52" height="265.16"/>
          <rect class="cls-1" x="3522.74" y="1081.4" width="265.52" height="265.16"/>
          <rect class="cls-1" x="3251.83" y="1081.4" width="265.52" height="265.16"/>
          <rect class="cls-1" x="2710.01" y="1351.65" width="265.52" height="265.16"/>
          <rect class="cls-1" x="2980.92" y="1351.65" width="265.52" height="265.16"/>
          <rect class="cls-1" x="3522.74" y="1351.65" width="265.52" height="265.16"/>
          <rect class="cls-1" x="3251.83" y="1351.65" width="265.52" height="265.16"/>
          <rect class="cls-1" x="2439.31" y="1081.4" width="265.52" height="265.16"/>
          <rect class="cls-1" x="2168.39" y="1081.4" width="265.52" height="265.16"/>
          <rect class="cls-1" x="2439.31" y="1351.65" width="265.52" height="265.16"/>
          <rect class="cls-1" x="2168.39" y="1351.65" width="265.52" height="265.16"/>
          <rect class="cls-1" x="2710.01" y="0" width="265.52" height="265.16"/>
          <rect class="cls-1" x="2980.92" y="0" width="265.52" height="265.16"/>
          <rect class="cls-1" x="3522.74" y="0" width="265.52" height="265.16"/>
          <rect class="cls-1" x="3251.83" y="0" width="265.52" height="265.16"/>
          <rect class="cls-1" x="2710.01" y="270.25" width="265.52" height="265.16"/>
          <rect class="cls-1" x="2980.92" y="270.25" width="265.52" height="265.16"/>
          <rect class="cls-1" x="3522.74" y="270.25" width="265.52" height="265.16"/>
          <rect class="cls-1" x="3251.83" y="270.25" width="265.52" height="265.16"/>
          <rect class="cls-1" x="2710.01" y="540.5" width="265.52" height="265.16"/>
          <rect class="cls-1" x="2980.92" y="540.5" width="265.52" height="265.16"/>
          <rect class="cls-1" x="3522.74" y="540.5" width="265.52" height="265.16"/>
          <rect class="cls-1" x="3251.83" y="540.5" width="265.52" height="265.16"/>
          <rect class="cls-1" x="2710.01" y="810.75" width="265.52" height="265.16"/>
          <rect class="cls-1" x="2980.92" y="810.75" width="265.52" height="265.16"/>
          <rect class="cls-1" x="3522.74" y="810.75" width="265.52" height="265.16"/>
          <rect class="cls-1" x="3251.83" y="810.75" width="265.52" height="265.16"/>
          <rect class="cls-1" x="2439.31" y="0" width="265.52" height="265.16"/>
          <rect class="cls-1" x="2168.39" y="0" width="265.52" height="265.16"/>
          <rect class="cls-1" x="2439.31" y="270.25" width="265.52" height="265.16"/>
          <rect class="cls-1" x="2168.39" y="270.25" width="265.52" height="265.16"/>
          <rect class="cls-1" x="2439.31" y="540.5" width="265.52" height="265.16"/>
          <rect class="cls-1" x="2168.39" y="540.5" width="265.52" height="265.16"/>
          <rect class="cls-1" x="2439.31" y="810.75" width="265.52" height="265.16"/>
          <rect class="cls-1" x="2168.39" y="810.75" width="265.52" height="265.16"/>
          <rect class="cls-1" x="1897.55" y="1621.35" width="265.52" height="265.16"/>
        </g>
      </g>
      <g>
        <rect class="cls-2" x="0" y="3783.93" width="1891.27" height="3779.28"/>
        <g>
          <rect class="cls-1" x="813.02" y="7298.05" width="265.52" height="265.16"/>
          <rect class="cls-1" x="542.11" y="7298.05" width="265.52" height="265.16"/>
          <rect class="cls-1" x=".28" y="7298.05" width="265.52" height="265.16"/>
          <rect class="cls-1" x="271.19" y="7298.05" width="265.52" height="265.16"/>
          <rect class="cls-1" x="1083.71" y="7298.05" width="265.52" height="265.16"/>
          <rect class="cls-1" x="1354.63" y="7298.05" width="265.52" height="265.16"/>
          <rect class="cls-1" x="1625.47" y="5676.7" width="265.52" height="265.16"/>
          <rect class="cls-1" x="1625.47" y="5946.95" width="265.52" height="265.16"/>
          <rect class="cls-1" x="1625.47" y="6217.2" width="265.52" height="265.16"/>
          <rect class="cls-1" x="1625.47" y="6487.45" width="265.52" height="265.16"/>
          <rect class="cls-1" x="1625.47" y="6758.1" width="265.52" height="265.16"/>
          <rect class="cls-1" x="1625.47" y="7028.35" width="265.52" height="265.16"/>
          <rect class="cls-1" x="813.02" y="6758.1" width="265.52" height="265.16"/>
          <rect class="cls-1" x="542.11" y="6758.1" width="265.52" height="265.16"/>
          <rect class="cls-1" x=".28" y="6758.1" width="265.52" height="265.16"/>
          <rect class="cls-1" x="271.19" y="6758.1" width="265.52" height="265.16"/>
          <rect class="cls-1" x="813.02" y="7028.35" width="265.52" height="265.16"/>
          <rect class="cls-1" x="542.11" y="7028.35" width="265.52" height="265.16"/>
          <rect class="cls-1" x=".28" y="7028.35" width="265.52" height="265.16"/>
          <rect class="cls-1" x="271.19" y="7028.35" width="265.52" height="265.16"/>
          <rect class="cls-1" x="1083.71" y="6758.1" width="265.52" height="265.16"/>
          <rect class="cls-1" x="1354.63" y="6758.1" width="265.52" height="265.16"/>
          <rect class="cls-1" x="1083.71" y="7028.35" width="265.52" height="265.16"/>
          <rect class="cls-1" x="1354.63" y="7028.35" width="265.52" height="265.16"/>
          <rect class="cls-1" x="813.02" y="5676.7" width="265.52" height="265.16"/>
          <rect class="cls-1" x="542.11" y="5676.7" width="265.52" height="265.16"/>
          <rect class="cls-1" x=".28" y="5676.7" width="265.52" height="265.16"/>
          <rect class="cls-1" x="271.19" y="5676.7" width="265.52" height="265.16"/>
          <rect class="cls-1" x="813.02" y="5946.95" width="265.52" height="265.16"/>
          <rect class="cls-1" x="542.11" y="5946.95" width="265.52" height="265.16"/>
          <rect class="cls-1" x=".28" y="5946.95" width="265.52" height="265.16"/>
          <rect class="cls-1" x="271.19" y="5946.95" width="265.52" height="265.16"/>
          <rect class="cls-1" x="813.02" y="6217.2" width="265.52" height="265.16"/>
          <rect class="cls-1" x="542.11" y="6217.2" width="265.52" height="265.16"/>
          <rect class="cls-1" x=".28" y="6217.2" width="265.52" height="265.16"/>
          <rect class="cls-1" x="271.19" y="6217.2" width="265.52" height="265.16"/>
          <rect class="cls-1" x="813.02" y="6487.45" width="265.52" height="265.16"/>
          <rect class="cls-1" x="542.11" y="6487.45" width="265.52" height="265.16"/>
          <rect class="cls-1" x=".28" y="6487.45" width="265.52" height="265.16"/>
          <rect class="cls-1" x="271.19" y="6487.45" width="265.52" height="265.16"/>
          <rect class="cls-1" x="1083.71" y="5676.7" width="265.52" height="265.16"/>
          <rect class="cls-1" x="1354.63" y="5676.7" width="265.52" height="265.16"/>
          <rect class="cls-1" x="1083.71" y="5946.95" width="265.52" height="265.16"/>
          <rect class="cls-1" x="1354.63" y="5946.95" width="265.52" height="265.16"/>
          <rect class="cls-1" x="1083.71" y="6217.2" width="265.52" height="265.16"/>
          <rect class="cls-1" x="1354.63" y="6217.2" width="265.52" height="265.16"/>
          <rect class="cls-1" x="1083.71" y="6487.45" width="265.52" height="265.16"/>
          <rect class="cls-1" x="1354.63" y="6487.45" width="265.52" height="265.16"/>
          <rect class="cls-1" x="1625.47" y="7298.05" width="265.52" height="265.16"/>
          <rect class="cls-1" x="813.29" y="5405.28" width="265.52" height="265.16"/>
          <rect class="cls-1" x="542.37" y="5405.28" width="265.52" height="265.16"/>
          <rect class="cls-1" x=".56" y="5405.28" width="265.52" height="265.16"/>
          <rect class="cls-1" x="271.47" y="5405.28" width="265.52" height="265.16"/>
          <rect class="cls-1" x="1083.98" y="5405.28" width="265.52" height="265.16"/>
          <rect class="cls-1" x="1354.91" y="5405.28" width="265.52" height="265.16"/>
          <rect class="cls-1" x="1625.74" y="3783.93" width="265.52" height="265.16"/>
          <rect class="cls-1" x="1625.74" y="4054.18" width="265.52" height="265.16"/>
          <rect class="cls-1" x="1625.74" y="4324.43" width="265.52" height="265.16"/>
          <rect class="cls-1" x="1625.74" y="4594.68" width="265.52" height="265.16"/>
          <rect class="cls-1" x="1625.74" y="4865.33" width="265.52" height="265.16"/>
          <rect class="cls-1" x="1625.74" y="5135.58" width="265.52" height="265.16"/>
          <rect class="cls-1" x="813.29" y="4865.33" width="265.52" height="265.16"/>
          <rect class="cls-1" x="542.37" y="4865.33" width="265.52" height="265.16"/>
          <rect class="cls-1" x=".56" y="4865.33" width="265.52" height="265.16"/>
          <rect class="cls-1" x="271.47" y="4865.33" width="265.52" height="265.16"/>
          <rect class="cls-1" x="813.29" y="5135.58" width="265.52" height="265.16"/>
          <rect class="cls-1" x="542.37" y="5135.58" width="265.52" height="265.16"/>
          <rect class="cls-1" x=".56" y="5135.58" width="265.52" height="265.16"/>
          <rect class="cls-1" x="271.47" y="5135.58" width="265.52" height="265.16"/>
          <rect class="cls-1" x="1083.98" y="4865.33" width="265.52" height="265.16"/>
          <rect class="cls-1" x="1354.91" y="4865.33" width="265.52" height="265.16"/>
          <rect class="cls-1" x="1083.98" y="5135.58" width="265.52" height="265.16"/>
          <rect class="cls-1" x="1354.91" y="5135.58" width="265.52" height="265.16"/>
          <rect class="cls-1" x="813.29" y="3783.93" width="265.52" height="265.16"/>
          <rect class="cls-1" x="542.37" y="3783.93" width="265.52" height="265.16"/>
          <rect class="cls-1" x=".56" y="3783.93" width="265.52" height="265.16"/>
          <rect class="cls-1" x="271.47" y="3783.93" width="265.52" height="265.16"/>
          <rect class="cls-1" x="813.29" y="4054.18" width="265.52" height="265.16"/>
          <rect class="cls-1" x="542.37" y="4054.18" width="265.52" height="265.16"/>
          <rect class="cls-1" x=".56" y="4054.18" width="265.52" height="265.16"/>
          <rect class="cls-1" x="271.47" y="4054.18" width="265.52" height="265.16"/>
          <rect class="cls-1" x="813.29" y="4324.43" width="265.52" height="265.16"/>
          <rect class="cls-1" x="542.37" y="4324.43" width="265.52" height="265.16"/>
          <rect class="cls-1" x=".56" y="4324.43" width="265.52" height="265.16"/>
          <rect class="cls-1" x="271.47" y="4324.43" width="265.52" height="265.16"/>
          <rect class="cls-1" x="813.29" y="4594.68" width="265.52" height="265.16"/>
          <rect class="cls-1" x="542.37" y="4594.68" width="265.52" height="265.16"/>
          <rect class="cls-1" x=".56" y="4594.68" width="265.52" height="265.16"/>
          <rect class="cls-1" x="271.47" y="4594.68" width="265.52" height="265.16"/>
          <rect class="cls-1" x="1083.98" y="3783.93" width="265.52" height="265.16"/>
          <rect class="cls-1" x="1354.91" y="3783.93" width="265.52" height="265.16"/>
          <rect class="cls-1" x="1083.98" y="4054.18" width="265.52" height="265.16"/>
          <rect class="cls-1" x="1354.91" y="4054.18" width="265.52" height="265.16"/>
          <rect class="cls-1" x="1083.98" y="4324.43" width="265.52" height="265.16"/>
          <rect class="cls-1" x="1354.91" y="4324.43" width="265.52" height="265.16"/>
          <rect class="cls-1" x="1083.98" y="4594.68" width="265.52" height="265.16"/>
          <rect class="cls-1" x="1354.91" y="4594.68" width="265.52" height="265.16"/>
          <rect class="cls-1" x="1625.74" y="5405.28" width="265.52" height="265.16"/>
        </g>
      </g>
      <g>
        <rect class="cls-2" x="1897.55" y="3783.93" width="1891.27" height="3779.28"/>
        <g>
          <rect class="cls-1" x="2710.28" y="7298.05" width="265.52" height="265.16"/>
          <rect class="cls-1" x="2981.19" y="7298.05" width="265.52" height="265.16"/>
          <rect class="cls-1" x="3523.02" y="7298.05" width="265.52" height="265.16"/>
          <rect class="cls-1" x="3252.11" y="7298.05" width="265.52" height="265.16"/>
          <rect class="cls-1" x="2439.58" y="7298.05" width="265.52" height="265.16"/>
          <rect class="cls-1" x="2168.67" y="7298.05" width="265.52" height="265.16"/>
          <rect class="cls-1" x="1897.82" y="5676.7" width="265.52" height="265.16"/>
          <rect class="cls-1" x="1897.82" y="5946.95" width="265.52" height="265.16"/>
          <rect class="cls-1" x="1897.82" y="6217.2" width="265.52" height="265.16"/>
          <rect class="cls-1" x="1897.82" y="6487.45" width="265.52" height="265.16"/>
          <rect class="cls-1" x="1897.82" y="6758.1" width="265.52" height="265.16"/>
          <rect class="cls-1" x="1897.82" y="7028.35" width="265.52" height="265.16"/>
          <rect class="cls-1" x="2710.28" y="6758.1" width="265.52" height="265.16"/>
          <rect class="cls-1" x="2981.19" y="6758.1" width="265.52" height="265.16"/>
          <rect class="cls-1" x="3523.02" y="6758.1" width="265.52" height="265.16"/>
          <rect class="cls-1" x="3252.11" y="6758.1" width="265.52" height="265.16"/>
          <rect class="cls-1" x="2710.28" y="7028.35" width="265.52" height="265.16"/>
          <rect class="cls-1" x="2981.19" y="7028.35" width="265.52" height="265.16"/>
          <rect class="cls-1" x="3523.02" y="7028.35" width="265.52" height="265.16"/>
          <rect class="cls-1" x="3252.11" y="7028.35" width="265.52" height="265.16"/>
          <rect class="cls-1" x="2439.58" y="6758.1" width="265.52" height="265.16"/>
          <rect class="cls-1" x="2168.67" y="6758.1" width="265.52" height="265.16"/>
          <rect class="cls-1" x="2439.58" y="7028.35" width="265.52" height="265.16"/>
          <rect class="cls-1" x="2168.67" y="7028.35" width="265.52" height="265.16"/>
          <rect class="cls-1" x="2710.28" y="5676.7" width="265.52" height="265.16"/>
          <rect class="cls-1" x="2981.19" y="5676.7" width="265.52" height="265.16"/>
          <rect class="cls-1" x="3523.02" y="5676.7" width="265.52" height="265.16"/>
          <rect class="cls-1" x="3252.11" y="5676.7" width="265.52" height="265.16"/>
          <rect class="cls-1" x="2710.28" y="5946.95" width="265.52" height="265.16"/>
          <rect class="cls-1" x="2981.19" y="5946.95" width="265.52" height="265.16"/>
          <rect class="cls-1" x="3523.02" y="5946.95" width="265.52" height="265.16"/>
          <rect class="cls-1" x="3252.11" y="5946.95" width="265.52" height="265.16"/>
          <rect class="cls-1" x="2710.28" y="6217.2" width="265.52" height="265.16"/>
          <rect class="cls-1" x="2981.19" y="6217.2" width="265.52" height="265.16"/>
          <rect class="cls-1" x="3523.02" y="6217.2" width="265.52" height="265.16"/>
          <rect class="cls-1" x="3252.11" y="6217.2" width="265.52" height="265.16"/>
          <rect class="cls-1" x="2710.28" y="6487.45" width="265.52" height="265.16"/>
          <rect class="cls-1" x="2981.19" y="6487.45" width="265.52" height="265.16"/>
          <rect class="cls-1" x="3523.02" y="6487.45" width="265.52" height="265.16"/>
          <rect class="cls-1" x="3252.11" y="6487.45" width="265.52" height="265.16"/>
          <rect class="cls-1" x="2439.58" y="5676.7" width="265.52" height="265.16"/>
          <rect class="cls-1" x="2168.67" y="5676.7" width="265.52" height="265.16"/>
          <rect class="cls-1" x="2439.58" y="5946.95" width="265.52" height="265.16"/>
          <rect class="cls-1" x="2168.67" y="5946.95" width="265.52" height="265.16"/>
          <rect class="cls-1" x="2439.58" y="6217.2" width="265.52" height="265.16"/>
          <rect class="cls-1" x="2168.67" y="6217.2" width="265.52" height="265.16"/>
          <rect class="cls-1" x="2439.58" y="6487.45" width="265.52" height="265.16"/>
          <rect class="cls-1" x="2168.67" y="6487.45" width="265.52" height="265.16"/>
          <rect class="cls-1" x="1897.82" y="7298.05" width="265.52" height="265.16"/>
          <rect class="cls-1" x="2710.01" y="5405.28" width="265.52" height="265.16"/>
          <rect class="cls-1" x="2980.92" y="5405.28" width="265.52" height="265.16"/>
          <rect class="cls-1" x="3522.74" y="5405.28" width="265.52" height="265.16"/>
          <rect class="cls-1" x="3251.83" y="5405.28" width="265.52" height="265.16"/>
          <rect class="cls-1" x="2439.31" y="5405.28" width="265.52" height="265.16"/>
          <rect class="cls-1" x="2168.39" y="5405.28" width="265.52" height="265.16"/>
          <rect class="cls-1" x="1897.55" y="3783.93" width="265.52" height="265.16"/>
          <rect class="cls-1" x="1897.55" y="4054.18" width="265.52" height="265.16"/>
          <rect class="cls-1" x="1897.55" y="4324.43" width="265.52" height="265.16"/>
          <rect class="cls-1" x="1897.55" y="4594.68" width="265.52" height="265.16"/>
          <rect class="cls-1" x="1897.55" y="4865.33" width="265.52" height="265.16"/>
          <rect class="cls-1" x="1897.55" y="5135.58" width="265.52" height="265.16"/>
          <rect class="cls-1" x="2710.01" y="4865.33" width="265.52" height="265.16"/>
          <rect class="cls-1" x="2980.92" y="4865.33" width="265.52" height="265.16"/>
          <rect class="cls-1" x="3522.74" y="4865.33" width="265.52" height="265.16"/>
          <rect class="cls-1" x="3251.83" y="4865.33" width="265.52" height="265.16"/>
          <rect class="cls-1" x="2710.01" y="5135.58" width="265.52" height="265.16"/>
          <rect class="cls-1" x="2980.92" y="5135.58" width="265.52" height="265.16"/>
          <rect class="cls-1" x="3522.74" y="5135.58" width="265.52" height="265.16"/>
          <rect class="cls-1" x="3251.83" y="5135.58" width="265.52" height="265.16"/>
          <rect class="cls-1" x="2439.31" y="4865.33" width="265.52" height="265.16"/>
          <rect class="cls-1" x="2168.39" y="4865.33" width="265.52" height="265.16"/>
          <rect class="cls-1" x="2439.31" y="5135.58" width="265.52" height="265.16"/>
          <rect class="cls-1" x="2168.39" y="5135.58" width="265.52" height="265.16"/>
          <rect class="cls-1" x="2710.01" y="3783.93" width="265.52" height="265.16"/>
          <rect class="cls-1" x="2980.92" y="3783.93" width="265.52" height="265.16"/>
          <rect class="cls-1" x="3522.74" y="3783.93" width="265.52" height="265.16"/>
          <rect class="cls-1" x="3251.83" y="3783.93" width="265.52" height="265.16"/>
          <rect class="cls-1" x="2710.01" y="4054.18" width="265.52" height="265.16"/>
          <rect class="cls-1" x="2980.92" y="4054.18" width="265.52" height="265.16"/>
          <rect class="cls-1" x="3522.74" y="4054.18" width="265.52" height="265.16"/>
          <rect class="cls-1" x="3251.83" y="4054.18" width="265.52" height="265.16"/>
          <rect class="cls-1" x="2710.01" y="4324.43" width="265.52" height="265.16"/>
          <rect class="cls-1" x="2980.92" y="4324.43" width="265.52" height="265.16"/>
          <rect class="cls-1" x="3522.74" y="4324.43" width="265.52" height="265.16"/>
          <rect class="cls-1" x="3251.83" y="4324.43" width="265.52" height="265.16"/>
          <rect class="cls-1" x="2710.01" y="4594.68" width="265.52" height="265.16"/>
          <rect class="cls-1" x="2980.92" y="4594.68" width="265.52" height="265.16"/>
          <rect class="cls-1" x="3522.74" y="4594.68" width="265.52" height="265.16"/>
          <rect class="cls-1" x="3251.83" y="4594.68" width="265.52" height="265.16"/>
          <rect class="cls-1" x="2439.31" y="3783.93" width="265.52" height="265.16"/>
          <rect class="cls-1" x="2168.39" y="3783.93" width="265.52" height="265.16"/>
          <rect class="cls-1" x="2439.31" y="4054.18" width="265.52" height="265.16"/>
          <rect class="cls-1" x="2168.39" y="4054.18" width="265.52" height="265.16"/>
          <rect class="cls-1" x="2439.31" y="4324.43" width="265.52" height="265.16"/>
          <rect class="cls-1" x="2168.39" y="4324.43" width="265.52" height="265.16"/>
          <rect class="cls-1" x="2439.31" y="4594.68" width="265.52" height="265.16"/>
          <rect class="cls-1" x="2168.39" y="4594.68" width="265.52" height="265.16"/>
          <rect class="cls-1" x="1897.55" y="5405.28" width="265.52" height="265.16"/>
        </g>
      </g>
    </g>
  </g>
</svg>