<?xml version="1.0" encoding="UTF-8"?>
<svg id="Layer_1" data-name="Layer 1" xmlns="http://www.w3.org/2000/svg" width="1920" height="3840" viewBox="0 0 1920 3840">
  <defs>
    <style>
      .cls-1 {
        fill: #f4f2ed;
      }

      .cls-2 {
        fill: #9fb4c7;
      }
    </style>
  </defs>
  <rect class="cls-2" x="0" width="1920" height="3840"/>
  <g>
    <rect class="cls-1" x="827.24" y="3544.48" width="265.52" height="265.16"/>
    <rect class="cls-1" x="556.33" y="3544.48" width="265.52" height="265.16"/>
    <rect class="cls-1" x="14.5" y="3544.48" width="265.52" height="265.16"/>
    <rect class="cls-1" x="285.41" y="3544.48" width="265.52" height="265.16"/>
    <rect class="cls-1" x="1097.94" y="3544.48" width="265.52" height="265.16"/>
    <rect class="cls-1" x="1368.85" y="3544.48" width="265.52" height="265.16"/>
    <rect class="cls-1" x="1639.7" y="1923.13" width="265.52" height="265.16"/>
    <rect class="cls-1" x="1639.7" y="2193.38" width="265.52" height="265.16"/>
    <rect class="cls-1" x="1639.7" y="2463.63" width="265.52" height="265.16"/>
    <rect class="cls-1" x="1639.7" y="2733.88" width="265.52" height="265.16"/>
    <rect class="cls-1" x="1639.7" y="3004.53" width="265.52" height="265.16"/>
    <rect class="cls-1" x="1639.7" y="3274.78" width="265.52" height="265.16"/>
    <rect class="cls-1" x="827.24" y="3004.53" width="265.52" height="265.16"/>
    <rect class="cls-1" x="556.33" y="3004.53" width="265.52" height="265.16"/>
    <rect class="cls-1" x="14.5" y="3004.53" width="265.52" height="265.16"/>
    <rect class="cls-1" x="285.41" y="3004.53" width="265.52" height="265.16"/>
    <rect class="cls-1" x="827.24" y="3274.78" width="265.52" height="265.16"/>
    <rect class="cls-1" x="556.33" y="3274.78" width="265.52" height="265.16"/>
    <rect class="cls-1" x="14.5" y="3274.78" width="265.52" height="265.16"/>
    <rect class="cls-1" x="285.41" y="3274.78" width="265.52" height="265.16"/>
    <rect class="cls-1" x="1097.94" y="3004.53" width="265.52" height="265.16"/>
    <rect class="cls-1" x="1368.85" y="3004.53" width="265.52" height="265.16"/>
    <rect class="cls-1" x="1097.94" y="3274.78" width="265.52" height="265.16"/>
    <rect class="cls-1" x="1368.85" y="3274.78" width="265.52" height="265.16"/>
    <rect class="cls-1" x="827.24" y="1923.13" width="265.52" height="265.16"/>
    <rect class="cls-1" x="556.33" y="1923.13" width="265.52" height="265.16"/>
    <rect class="cls-1" x="14.5" y="1923.13" width="265.52" height="265.16"/>
    <rect class="cls-1" x="285.41" y="1923.13" width="265.52" height="265.16"/>
    <rect class="cls-1" x="827.24" y="2193.38" width="265.52" height="265.16"/>
    <rect class="cls-1" x="556.33" y="2193.38" width="265.52" height="265.16"/>
    <rect class="cls-1" x="14.5" y="2193.38" width="265.52" height="265.16"/>
    <rect class="cls-1" x="285.41" y="2193.38" width="265.52" height="265.16"/>
    <rect class="cls-1" x="827.24" y="2463.63" width="265.52" height="265.16"/>
    <rect class="cls-1" x="556.33" y="2463.63" width="265.52" height="265.16"/>
    <rect class="cls-1" x="14.5" y="2463.63" width="265.52" height="265.16"/>
    <rect class="cls-1" x="285.41" y="2463.63" width="265.52" height="265.16"/>
    <rect class="cls-1" x="827.24" y="2733.88" width="265.52" height="265.16"/>
    <rect class="cls-1" x="556.33" y="2733.88" width="265.52" height="265.16"/>
    <rect class="cls-1" x="14.5" y="2733.88" width="265.52" height="265.16"/>
    <rect class="cls-1" x="285.41" y="2733.88" width="265.52" height="265.16"/>
    <rect class="cls-1" x="1097.94" y="1923.13" width="265.52" height="265.16"/>
    <rect class="cls-1" x="1368.85" y="1923.13" width="265.52" height="265.16"/>
    <rect class="cls-1" x="1097.94" y="2193.38" width="265.52" height="265.16"/>
    <rect class="cls-1" x="1368.85" y="2193.38" width="265.52" height="265.16"/>
    <rect class="cls-1" x="1097.94" y="2463.63" width="265.52" height="265.16"/>
    <rect class="cls-1" x="1368.85" y="2463.63" width="265.52" height="265.16"/>
    <rect class="cls-1" x="1097.94" y="2733.88" width="265.52" height="265.16"/>
    <rect class="cls-1" x="1368.85" y="2733.88" width="265.52" height="265.16"/>
    <rect class="cls-1" x="1639.7" y="3544.48" width="265.52" height="265.16"/>
    <rect class="cls-1" x="827.51" y="1651.71" width="265.52" height="265.16"/>
    <rect class="cls-1" x="556.6" y="1651.71" width="265.52" height="265.16"/>
    <rect class="cls-1" x="14.78" y="1651.71" width="265.52" height="265.16"/>
    <rect class="cls-1" x="285.69" y="1651.71" width="265.52" height="265.16"/>
    <rect class="cls-1" x="1098.21" y="1651.71" width="265.52" height="265.16"/>
    <rect class="cls-1" x="1369.13" y="1651.71" width="265.52" height="265.16"/>
    <rect class="cls-1" x="1639.97" y="30.36" width="265.52" height="265.16"/>
    <rect class="cls-1" x="1639.97" y="300.61" width="265.52" height="265.16"/>
    <rect class="cls-1" x="1639.97" y="570.86" width="265.52" height="265.16"/>
    <rect class="cls-1" x="1639.97" y="841.11" width="265.52" height="265.16"/>
    <rect class="cls-1" x="1639.97" y="1111.76" width="265.52" height="265.16"/>
    <rect class="cls-1" x="1639.97" y="1382.01" width="265.52" height="265.16"/>
    <rect class="cls-1" x="827.51" y="1111.76" width="265.52" height="265.16"/>
    <rect class="cls-1" x="556.6" y="1111.76" width="265.52" height="265.16"/>
    <rect class="cls-1" x="14.78" y="1111.76" width="265.52" height="265.16"/>
    <rect class="cls-1" x="285.69" y="1111.76" width="265.52" height="265.16"/>
    <rect class="cls-1" x="827.51" y="1382.01" width="265.52" height="265.16"/>
    <rect class="cls-1" x="556.6" y="1382.01" width="265.52" height="265.16"/>
    <rect class="cls-1" x="14.78" y="1382.01" width="265.52" height="265.16"/>
    <rect class="cls-1" x="285.69" y="1382.01" width="265.52" height="265.16"/>
    <rect class="cls-1" x="1098.21" y="1111.76" width="265.52" height="265.16"/>
    <rect class="cls-1" x="1369.13" y="1111.76" width="265.52" height="265.16"/>
    <rect class="cls-1" x="1098.21" y="1382.01" width="265.52" height="265.16"/>
    <rect class="cls-1" x="1369.13" y="1382.01" width="265.52" height="265.16"/>
    <rect class="cls-1" x="827.51" y="30.36" width="265.52" height="265.16"/>
    <rect class="cls-1" x="556.6" y="30.36" width="265.52" height="265.16"/>
    <rect class="cls-1" x="14.78" y="30.36" width="265.52" height="265.16"/>
    <rect class="cls-1" x="285.69" y="30.36" width="265.52" height="265.16"/>
    <rect class="cls-1" x="827.51" y="300.61" width="265.52" height="265.16"/>
    <rect class="cls-1" x="556.6" y="300.61" width="265.52" height="265.16"/>
    <rect class="cls-1" x="14.78" y="300.61" width="265.52" height="265.16"/>
    <rect class="cls-1" x="285.69" y="300.61" width="265.52" height="265.16"/>
    <rect class="cls-1" x="827.51" y="570.86" width="265.52" height="265.16"/>
    <rect class="cls-1" x="556.6" y="570.86" width="265.52" height="265.16"/>
    <rect class="cls-1" x="14.78" y="570.86" width="265.52" height="265.16"/>
    <rect class="cls-1" x="285.69" y="570.86" width="265.52" height="265.16"/>
    <rect class="cls-1" x="827.51" y="841.11" width="265.52" height="265.16"/>
    <rect class="cls-1" x="556.6" y="841.11" width="265.52" height="265.16"/>
    <rect class="cls-1" x="14.78" y="841.11" width="265.52" height="265.16"/>
    <rect class="cls-1" x="285.69" y="841.11" width="265.52" height="265.16"/>
    <rect class="cls-1" x="1098.21" y="30.36" width="265.52" height="265.16"/>
    <rect class="cls-1" x="1369.13" y="30.36" width="265.52" height="265.16"/>
    <rect class="cls-1" x="1098.21" y="300.61" width="265.52" height="265.16"/>
    <rect class="cls-1" x="1369.13" y="300.61" width="265.52" height="265.16"/>
    <rect class="cls-1" x="1098.21" y="570.86" width="265.52" height="265.16"/>
    <rect class="cls-1" x="1369.13" y="570.86" width="265.52" height="265.16"/>
    <rect class="cls-1" x="1098.21" y="841.11" width="265.52" height="265.16"/>
    <rect class="cls-1" x="1369.13" y="841.11" width="265.52" height="265.16"/>
    <rect class="cls-1" x="1639.97" y="1651.71" width="265.52" height="265.16"/>
  </g>
</svg>